<?xml version="1.0" encoding="UTF-8"?>
<svg id="_レイヤー_2" xmlns="http://www.w3.org/2000/svg" xmlns:xlink="http://www.w3.org/1999/xlink" version="1.1" viewBox="0 0 1960 524.3">
  <!-- Generator: Adobe Illustrator 30.2.1, SVG Export Plug-In . SVG Version: 2.1.1 Build 1)  -->
  <defs>
    <style>
      .st0 {
        fill: none;
      }

      .st1, .st2 {
        fill: url(#_パターン_bk_m);
      }

      .st3 {
        fill: #343b42;
      }

      .st4 {
        fill: #2d343c;
      }

      .st5 {
        fill: #1d252d;
      }

      .st2 {
        display: none;
      }
    </style>
    <pattern id="_パターン_bk_m" data-name=" パターン bk m" x="0" y="0" width="508.9" height="508.9" patternTransform="translate(472.7 -1862.8) scale(4.3 -4.3)" patternUnits="userSpaceOnUse" viewBox="0 0 508.9 508.9">
      <g>
        <rect class="st0" width="508.9" height="508.9"/>
        <rect class="st0" width="508.9" height="508.9"/>
        <polygon class="st4" points="530 -77.8 742.4 -20.8 487.9 20.8 530 -77.8"/>
        <polygon class="st5" points="487.9 20.8 437.1 -105.7 530 -77.8 487.9 20.8"/>
        <polygon class="st4" points="21.1 -77.8 233.4 -20.8 -21.1 20.8 21.1 -77.8"/>
        <polygon class="st3" points="355.7 -33.4 327.1 7.5 233.4 -20.8 355.7 -33.4"/>
        <polygon class="st5" points="418.2 -16 327.1 7.5 355.7 -33.4 418.2 -16"/>
        <polygon class="st4" points="418.2 -16 437.1 -105.7 487.9 20.8 418.2 -16"/>
        <polygon class="st3" points="327.1 7.5 487.9 20.8 418.2 -16 327.1 7.5"/>
        <polygon class="st5" points="-21 20.8 -71.8 -105.7 21.1 -77.8 -21 20.8"/>
        <polygon class="st5" points="587.4 104.2 487.9 20.8 686.9 52.4 587.4 104.2"/>
        <polygon class="st3" points="686.9 52.4 742.4 -20.8 487.9 20.8 686.9 52.4"/>
        <polygon class="st3" points="587.4 104.2 524 114.7 487.9 20.8 587.4 104.2"/>
        <polygon class="st4" points="558 189.1 508.1 189.1 524 114.7 558 189.1"/>
        <polygon class="st3" points="558 189.1 567.4 270.6 508.1 189.1 558 189.1"/>
        <polygon class="st4" points="567.4 270.6 508.1 324.1 508.1 189.1 567.4 270.6"/>
        <polygon class="st3" points="567.4 270.6 551.7 331.9 508.1 324.1 567.4 270.6"/>
        <polygon class="st4" points="530 431 742.4 488.1 487.9 529.7 530 431"/>
        <polygon class="st5" points="530 431 508.1 324.1 551.7 331.9 530 431"/>
        <polygon class="st5" points="487.9 529.7 437.1 403.2 530 431 487.9 529.7"/>
        <polygon class="st4" points="530 431 508.1 324.1 437.1 403.2 530 431"/>
        <polygon class="st3" points="437.1 403.2 449.3 336.7 508.1 324.1 437.1 403.2"/>
        <polygon class="st5" points="508.1 324.1 409.5 290 449.3 336.7 508.1 324.1"/>
        <polygon class="st4" points="409.5 290 439.1 194.8 508.1 324.1 409.5 290"/>
        <polygon class="st3" points="439.1 194.8 508.1 189.1 508.1 324.1 439.1 194.8"/>
        <polygon class="st4" points="439.1 194.8 413.3 162.6 508.1 189.1 439.1 194.8"/>
        <polygon class="st5" points="413.3 162.6 524 114.7 508.1 189.1 413.3 162.6"/>
        <polygon class="st4" points="413.3 162.6 487.9 20.8 524 114.7 413.3 162.6"/>
        <polygon class="st3" points="413.3 162.6 406.8 49.2 487.9 20.8 413.3 162.6"/>
        <polygon class="st5" points="413.3 162.6 343.7 133.6 406.8 49.2 413.3 162.6"/>
        <polygon class="st4" points="406.8 49.2 327.1 7.5 343.7 133.6 406.8 49.2"/>
        <polygon class="st5" points="343.7 133.6 305.6 87.2 327.1 7.5 343.7 133.6"/>
        <polygon class="st4" points="305.6 87.2 178 52.4 327.1 7.5 305.6 87.2"/>
        <polygon class="st5" points="305.6 87.2 227.6 194.8 178 52.4 305.6 87.2"/>
        <polygon class="st3" points="227.6 194.8 167.3 168.5 178 52.4 227.6 194.8"/>
        <polygon class="st4" points="167.3 168.5 78.5 104.2 178 52.4 167.3 168.5"/>
        <polygon class="st5" points="78.5 104.2 -21 20.8 178 52.4 78.5 104.2"/>
        <polygon class="st5" points="327.1 7.5 487.9 20.8 406.8 49.2 327.1 7.5"/>
        <polygon class="st5" points="178 52.4 233.4 -20.8 327.1 7.5 178 52.4"/>
        <polygon class="st3" points="178 52.4 233.4 -20.8 -21 20.8 178 52.4"/>
        <polygon class="st3" points="78.5 104.2 15.1 114.7 -21.1 20.8 78.5 104.2"/>
        <polygon class="st3" points="167.3 168.5 49 189.1 78.5 104.2 167.3 168.5"/>
        <polygon class="st5" points="49 189.1 15.1 114.7 78.5 104.2 49 189.1"/>
        <polygon class="st4" points="49 189.1 -.8 189.1 15.1 114.7 49 189.1"/>
        <polygon class="st4" points="167.3 168.5 191.8 245.6 49 189.1 167.3 168.5"/>
        <polygon class="st3" points="49 189.1 58.5 270.6 -.8 189.1 49 189.1"/>
        <polygon class="st4" points="58.5 270.6 -.8 324.1 -.8 189.1 58.5 270.6"/>
        <path class="st3" d="M58.5,270.6"/>
        <polygon class="st5" points="58.5 270.6 191.8 245.6 49 189.1 58.5 270.6"/>
        <polygon class="st5" points="191.8 245.6 227.6 194.8 167.3 168.5 191.8 245.6"/>
        <polygon class="st4" points="227.6 194.8 343.7 133.6 305.6 87.2 227.6 194.8"/>
        <polygon class="st4" points="227.6 194.8 305.6 229.8 191.8 245.6 227.6 194.8"/>
        <polygon class="st4" points="343.7 133.6 305.6 229.8 413.3 162.6 343.7 133.6"/>
        <polygon class="st3" points="305.6 229.8 343.7 133.6 227.6 194.8 305.6 229.8"/>
        <polygon class="st5" points="413.3 162.6 395.4 216.1 439.1 194.8 413.3 162.6"/>
        <polygon class="st3" points="395.4 216.1 305.6 229.8 413.3 162.6 395.4 216.1"/>
        <polygon class="st3" points="395.4 216.1 409.5 290 439.1 194.8 395.4 216.1"/>
        <polygon class="st4" points="305.6 229.8 364.7 287 395.4 216.1 305.6 229.8"/>
        <polygon class="st5" points="364.7 287 409.5 290 395.4 216.1 364.7 287"/>
        <polygon class="st3" points="364.7 287 310.9 279.4 305.6 229.8 364.7 287"/>
        <polygon class="st5" points="305.6 229.8 310.9 279.4 191.8 245.6 305.6 229.8"/>
        <polygon class="st4" points="364.7 287 283.2 338.7 310.9 279.4 364.7 287"/>
        <polygon class="st5" points="310.9 279.4 283.2 338.7 203 305.1 310.9 279.4"/>
        <polygon class="st4" points="203 305.1 191.8 245.6 310.9 279.4 203 305.1"/>
        <polygon class="st5" points="203 305.1 143.2 287 191.8 245.6 203 305.1"/>
        <polygon class="st3" points="191.8 245.6 143.2 287 58.5 270.6 191.8 245.6"/>
        <polygon class="st3" points="58.5 270.6 42.8 331.9 -.8 324.1 58.5 270.6"/>
        <polygon class="st4" points="58.5 270.6 42.8 331.9 143.2 287 58.5 270.6"/>
        <polygon class="st5" points="143.2 287 108.1 351.6 42.8 331.9 143.2 287"/>
        <polygon class="st4" points="108.1 351.6 203 305.1 143.2 287 108.1 351.6"/>
        <polygon class="st3" points="203 305.1 185.5 380.4 283.2 338.7 203 305.1"/>
        <polygon class="st5" points="185.5 380.4 108.1 351.6 203 305.1 185.5 380.4"/>
        <polygon class="st4" points="108.1 351.6 21.1 431 185.5 380.4 108.1 351.6"/>
        <polygon class="st3" points="42.8 331.9 21.1 431 108.1 351.6 42.8 331.9"/>
        <polygon class="st4" points="21.1 431 233.4 488.1 -21.1 529.7 21.1 431"/>
        <polygon class="st5" points="185.5 380.4 163.2 431 21.1 431 185.5 380.4"/>
        <polygon class="st3" points="21.1 431 233.4 488.1 163.2 431 21.1 431"/>
        <polygon class="st4" points="163.2 431 233.4 488.1 185.5 380.4 163.2 431"/>
        <polygon class="st5" points="233.4 488.1 283.2 338.7 185.5 380.4 233.4 488.1"/>
        <polygon class="st3" points="283.2 338.7 350.5 399.9 364.7 287 283.2 338.7"/>
        <polygon class="st4" points="409.5 290 404.6 341.8 364.7 287 409.5 290"/>
        <polygon class="st5" points="404.6 341.8 350.5 399.9 364.7 287 404.6 341.8"/>
        <polygon class="st3" points="449.3 336.7 404.6 341.8 409.5 290 449.3 336.7"/>
        <polygon class="st5" points="437.1 403.2 435.8 400.6 404.6 341.8 449.3 336.7 437.1 403.2"/>
        <polygon class="st4" points="233.4 488.1 298.3 389.1 283.2 338.7 233.4 488.1"/>
        <polygon class="st5" points="298.3 389.1 350.5 399.9 283.2 338.7 298.3 389.1"/>
        <path class="st3" d="M350.5,399.9"/>
        <polygon class="st4" points="350.5 399.9 399.2 386.1 404.6 341.8 350.5 399.9"/>
        <polygon class="st3" points="399.2 386.1 437.1 403.2 404.6 341.8 399.2 386.1"/>
        <polygon class="st5" points="233.4 488.1 305.6 449.2 298.3 389.1 233.4 488.1"/>
        <polygon class="st3" points="305.6 449.2 355.7 475.4 298.3 389.1 305.6 449.2"/>
        <polygon class="st4" points="350.5 399.9 355.7 475.4 298.3 389.1 350.5 399.9"/>
        <polygon class="st3" points="355.7 475.4 327.1 516.3 233.4 488.1 355.7 475.4"/>
        <polygon class="st4" points="355.7 475.4 305.6 449.2 233.4 488.1 355.7 475.4"/>
        <polygon class="st5" points="355.7 475.4 399.2 386.1 350.5 399.9 355.7 475.4"/>
        <polygon class="st3" points="399.2 386.1 418.2 492.9 355.7 475.4 399.2 386.1"/>
        <polygon class="st5" points="418.2 492.9 327.1 516.3 355.7 475.4 418.2 492.9"/>
        <polygon class="st4" points="418.2 492.9 437.1 403.2 487.9 529.7 418.2 492.9"/>
        <polygon class="st3" points="327.1 516.3 487.9 529.7 418.2 492.9 327.1 516.3"/>
        <polygon class="st5" points="418.2 492.9 437.1 403.2 399.2 386.1 418.2 492.9"/>
        <polygon class="st5" points="21.1 431 -.8 324.1 42.8 331.9 21.1 431"/>
        <polygon class="st5" points="-21 529.7 -71.8 403.2 21.1 431 -21 529.7"/>
        <polygon class="st4" points="21.1 431 -.8 324.1 -71.8 403.2 21.1 431"/>
        <polygon class="st5" points="-95.7 162.6 15.1 114.7 -.8 189.1 -95.7 162.6"/>
        <polygon class="st4" points="-95.7 162.6 -21 20.8 15.1 114.7 -95.7 162.6"/>
        <polygon class="st3" points="686.9 561.3 742.4 488.1 487.9 529.7 686.9 561.3"/>
        <polygon class="st5" points="178 561.3 233.4 488.1 327.1 516.3 178 561.3"/>
        <polygon class="st3" points="178 561.3 233.4 488.1 -21 529.7 178 561.3"/>
      </g>
    </pattern>
  </defs>
  <g id="_レイヤー_1-2">
    <g id="_レイヤー_1-21" data-name="_レイヤー_1-2">
      <polygon class="st1" points="24.3 505.7 24.3 499.2 39.5 499.2 39.5 455.7 24.3 455.7 24.3 449.1 63.4 449.1 63.4 455.7 48.2 455.7 48.2 499.2 63.4 499.2 63.4 505.7 24.3 505.7"/>
      <path class="st1" d="M126.6,504c-5.8,2.1-11.3,3.1-16.5,3.1-9,0-16.3-2.7-21.7-8.1s-8.3-12.5-8.3-21.3,2.7-16.1,8.2-21.6,12.6-8.3,21.5-8.3,10.4.9,16.1,2.6v8c-5.8-2.7-11.3-4-16.3-4s-10.7,2.2-14.5,6.4c-3.8,4.3-5.7,9.8-5.7,16.4s2.1,12.2,6.3,16.5c4.2,4.2,9.8,6.4,16.5,6.4s8.8-1,14.3-3.1v7.2h0c0,0,0,0,0,0Z"/>
      <polygon class="st1" points="157.4 505.7 157.4 455.7 135.6 455.7 135.6 449.1 187.8 449.1 187.8 455.7 166.1 455.7 166.1 505.7 157.4 505.7"/>
      <polygon class="st1" points="275.3 505.7 275.3 455.7 253.5 455.7 253.5 449.1 305.7 449.1 305.7 455.7 283.9 455.7 283.9 505.7 275.3 505.7"/>
      <path class="st1" d="M324.9,505.7v-47.9h8.7v9c4.4-6.7,10.4-10,17.8-10s5.6.4,8.9,1.1v13.6h-6.5v-6.7c-1.3-.3-2.5-.4-3.5-.4-3.4,0-6.2.8-8.7,2.3-2.5,1.5-5.1,4.2-7.9,7.9v31.1h-8.7c0,0,0,0,0,0Z"/>
      <path class="st1" d="M397.5,506.8c-7,0-12.6-2.2-16.5-6.7-4-4.4-6-10.6-6-18.4s2-13.9,6-18.3,9.6-6.7,16.5-6.7,12.6,2.2,16.6,6.7c4,4.4,6,10.6,6,18.3s-2,13.9-6,18.4-9.6,6.7-16.6,6.7M397.5,500.3c4.2,0,7.5-1.6,9.8-4.9,2.4-3.3,3.5-7.8,3.5-13.6s-1.2-10.3-3.5-13.6c-2.3-3.3-5.6-4.9-9.8-4.9s-7.5,1.6-9.8,4.9c-2.3,3.3-3.5,7.8-3.5,13.6s1.2,10.4,3.5,13.6c2.3,3.3,5.6,4.9,9.8,4.9"/>
      <path class="st1" d="M475.6,457.8v47.9h-8.7v-9c-4,6.7-9.4,10.1-16.3,10.1s-13.6-5.4-13.6-16.2v-32.8h8.7v30.4c0,3.8.6,6.4,1.7,8,1.2,1.6,3.1,2.4,5.9,2.4,4.4,0,8.9-3.1,13.7-9.4v-31.3h8.7c0,0,0,0,0,0Z"/>
      <path class="st1" d="M495.8,506.2v-70.1h8.7v30.7c4.2-6.7,9.4-10,15.6-10s9.7,2.1,12.8,6.3c3.1,4.2,4.7,9.9,4.7,17.1s-1.8,14.3-5.5,19.3-8.5,7.4-14.5,7.4-9.5-2.2-13.1-6.5l-2.1,5.9h-6.6c0,0,0,0,0,0ZM504.4,493.8c4,4.4,8,6.6,11.9,6.6s6.8-1.7,8.9-5c2.1-3.4,3.1-8.1,3.1-14.1,0-11.3-3.3-16.9-10.1-16.9s-9.5,3.1-13.9,9.1v20.4h0Z"/>
      <polygon class="st1" points="573.1 505.7 573.1 442.6 554.7 442.6 554.7 436.1 581.8 436.1 581.8 505.7 573.1 505.7"/>
      <path class="st1" d="M654.4,503.8c-6,2-11.5,3-16.6,3-8.3,0-14.5-2.1-19-6.4s-6.6-10.3-6.6-18.2,2.1-13.5,6.3-18.4c4.2-4.8,9.6-7.2,16.2-7.2s11.5,2,14.6,5.9,4.7,10.2,4.7,18.5v2.8h-32.7c.6,10.9,6.5,16.3,17.5,16.3s9.8-1.1,15.4-3.4v6.9h0ZM621.7,477.5h23.1v-1.2c0-8.7-3.6-13-10.8-13s-6.3,1.2-8.5,3.8c-2.2,2.5-3.5,6-3.9,10.5"/>
      <path class="st1" d="M709.4,450.5v7.5c-6.3-2.5-12.1-3.7-17-3.7-7.9,0-11.8,2.7-11.8,7.9s.8,3.9,2.2,5.2,4.2,2.7,8.1,4l5.5,1.9,5.3,1.8c8.2,2.9,12.3,7.7,12.3,14.6s-2.1,9.4-6.3,12.6c-4.2,3.1-9.8,4.7-16.8,4.7s-11.2-1-18.9-3.1v-8.6c7.7,3.5,14.1,5.2,19.2,5.2s7.7-.8,10.2-2.5,3.8-4,3.8-6.8-.8-3.9-2.2-5.1c-1.5-1.3-4.6-2.7-9.4-4.5l-5.8-2.1c-5.8-2.1-9.8-4.4-12-6.6-2.2-2.2-3.3-5.3-3.3-9s1.7-9,5.2-11.8c3.5-2.8,8.3-4.2,14.5-4.2s10.8.9,17.1,2.7"/>
      <path class="st1" d="M731.8,505.7v-69.6h8.7v30.7c4-6.7,9.4-10,16.3-10s13.6,5.4,13.6,16.2v32.8h-8.7v-30.4c0-3.8-.6-6.4-1.7-7.9-1.2-1.6-3.1-2.4-5.9-2.4-4.4,0-9,3.1-13.7,9.4v31.3h-8.7c0,0,0,0,0,0Z"/>
      <path class="st1" d="M810,506.8c-7,0-12.6-2.2-16.5-6.7-4-4.4-6-10.6-6-18.4s2-13.9,6-18.3,9.6-6.7,16.5-6.7,12.6,2.2,16.6,6.7c4,4.4,6,10.6,6,18.3s-2,13.9-6,18.4-9.6,6.7-16.6,6.7M810,500.3c4.2,0,7.5-1.6,9.8-4.9s3.5-7.8,3.5-13.6-1.2-10.3-3.5-13.6c-2.3-3.3-5.6-4.9-9.8-4.9s-7.5,1.6-9.8,4.9c-2.4,3.3-3.5,7.8-3.5,13.6s1.2,10.4,3.5,13.6c2.3,3.3,5.6,4.9,9.8,4.9"/>
      <path class="st1" d="M868.9,506.8c-7,0-12.6-2.2-16.6-6.7-4-4.4-6-10.6-6-18.4s2-13.9,6.1-18.3,9.6-6.7,16.5-6.7,12.6,2.2,16.6,6.7c4,4.4,6,10.6,6,18.3s-2,13.9-6,18.4-9.6,6.7-16.6,6.7M868.9,500.3c4.2,0,7.5-1.6,9.8-4.9s3.5-7.8,3.5-13.6-1.2-10.3-3.5-13.6c-2.3-3.3-5.6-4.9-9.8-4.9s-7.5,1.6-9.8,4.9-3.5,7.8-3.5,13.6,1.2,10.4,3.5,13.6c2.4,3.3,5.6,4.9,9.8,4.9"/>
      <path class="st1" d="M949.2,505.7c-4.4.8-8.5,1.2-12.6,1.2-7.1,0-11.9-1.3-14.5-3.8-2.5-2.5-3.8-7.4-3.8-14.4v-23.1h-12v-6.5h12v-10.3h8.7v10.3h21.2v6.5h-21.2v24.5c0,2.7.1,4.6.5,5.7.3,1,1.1,1.9,2.2,2.7,2,1.3,4.9,2,8.7,2s7.2-.4,10.8-1.2v6.6h0c0,0,0,0,0,0Z"/>
      <path class="st1" d="M984.6,505.7v-41.3h-17.4v-6.5h26.1v47.9h-8.7q0,0,0,0ZM983.5,436.1h10.9v10.9h-10.9v-10.9Z"/>
      <path class="st1" d="M1026.5,505.7v-47.9h8.7v9c4-6.7,9.4-10,16.3-10s13.6,5.4,13.6,16.2v32.8h-8.7v-30.4c0-3.8-.6-6.4-1.8-7.9-1.2-1.6-3.1-2.4-5.9-2.4-4.4,0-8.9,3.1-13.7,9.4v31.3h-8.7,0Z"/>
      <path class="st1" d="M1086.7,521.7l1-7.3c5.2,2.2,10,3.3,14.5,3.3,9.3,0,13.9-4.4,13.9-13.3l.4-8.6c-3.6,6.6-8.9,9.9-15.8,9.9s-9.8-2.1-13.1-6.2c-3.2-4.2-4.8-9.8-4.8-16.8s1.8-13.9,5.6-18.7c3.8-4.8,8.5-7.2,14.6-7.2s9.3,2.2,13.8,6.6v-5.5h8.1v38.3c0,6.2-.4,10.9-1.2,14-.8,3.1-2.4,5.9-4.6,8.3-3.6,3.9-9.3,5.8-17,5.8s-9.6-.8-15.4-2.5M1116.2,488.7v-18.9c-3.9-4.4-7.9-6.6-12.1-6.6s-6.8,1.6-8.9,4.9-3.2,7.9-3.2,13.9,1,9,2.8,11.8c1.8,2.9,4.4,4.2,7.8,4.2,5.1,0,9.7-3.1,13.6-9.4"/>
      <path class="st1" d="M1246.2,504c-5.8,2.1-11.3,3.1-16.5,3.1-9,0-16.3-2.7-21.7-8.1s-8.3-12.5-8.3-21.3,2.7-16.1,8.2-21.6,12.6-8.3,21.4-8.3,10.4.9,16.1,2.6v8c-5.8-2.7-11.3-4-16.3-4s-10.7,2.2-14.5,6.4c-3.8,4.3-5.7,9.8-5.7,16.4s2.1,12.2,6.4,16.5c4.2,4.2,9.8,6.4,16.5,6.4s8.8-1,14.3-3.1v7.2h0c0,0,0,0,0,0Z"/>
      <path class="st1" d="M1281.4,506.8c-7,0-12.6-2.2-16.5-6.7-4-4.4-6-10.6-6-18.4s2.1-13.9,6.1-18.3,9.6-6.7,16.5-6.7,12.6,2.2,16.6,6.7c4,4.4,6,10.6,6,18.3s-2.1,13.9-6,18.4c-4,4.4-9.6,6.7-16.6,6.7M1281.4,500.3c4.2,0,7.4-1.6,9.8-4.9,2.3-3.3,3.6-7.8,3.6-13.6s-1.2-10.3-3.6-13.6c-2.3-3.3-5.6-4.9-9.8-4.9s-7.4,1.6-9.8,4.9c-2.3,3.3-3.6,7.8-3.6,13.6s1.2,10.4,3.6,13.6c2.3,3.3,5.6,4.9,9.8,4.9"/>
      <path class="st1" d="M1321.1,505.7v-47.9h8.7v9c4-6.7,9.4-10,16.3-10s13.6,5.4,13.6,16.2v32.8h-8.7v-30.4c0-3.8-.6-6.4-1.7-7.9-1.2-1.6-3.1-2.4-5.9-2.4-4.4,0-8.9,3.1-13.7,9.4v31.3h-8.7,0Z"/>
      <path class="st1" d="M1420.6,505.7c-4.4.8-8.5,1.2-12.6,1.2-7.1,0-11.9-1.3-14.5-3.8-2.6-2.5-3.8-7.4-3.8-14.4v-23.1h-11.9v-6.5h11.9v-10.3h8.7v10.3h21.2v6.5h-21.2v24.5c0,2.7.1,4.6.5,5.7.3,1,1.1,1.9,2.2,2.7,2,1.3,4.9,2,8.7,2s7.2-.4,10.8-1.2v6.6h0c0,0,0,0,0,0Z"/>
      <path class="st1" d="M1479.4,503.8c-6,2-11.5,3-16.6,3-8.3,0-14.6-2.1-19-6.4s-6.6-10.3-6.6-18.2,2.1-13.5,6.3-18.4c4.2-4.8,9.6-7.2,16.2-7.2s11.5,2,14.6,5.9,4.7,10.2,4.7,18.5v2.8h-32.7c.7,10.9,6.5,16.3,17.6,16.3s9.8-1.1,15.4-3.4v6.9h0ZM1446.7,477.5h23.1v-1.2c0-8.7-3.6-13-10.8-13s-6.3,1.2-8.5,3.8-3.5,6-3.9,10.5"/>
      <path class="st1" d="M1498.1,503.7v-7.9c6.8,2.9,12.6,4.4,17.5,4.4s6.4-.7,8.7-2.1c2.3-1.4,3.5-3.2,3.5-5.4s-2.7-5-8.2-6.8l-9.3-3c-7.2-2.4-10.9-6.5-10.9-12.4s1.6-7.7,4.9-10.1c3.3-2.4,7.9-3.5,13.9-3.5s9.7.7,15.6,2v7c-5.7-1.7-11-2.6-15.7-2.6s-5.7.5-7.6,1.7-2.8,2.7-2.8,4.6,2.1,4.3,6.5,5.8l11,3.8c4,1.4,6.9,3.1,8.6,5s2.6,4.5,2.6,7.6c0,4.5-1.8,8.1-5.6,10.9-3.8,2.7-8.7,4-15,4s-11.3-1-17.6-3"/>
      <path class="st1" d="M1597.4,505.7c-4.4.8-8.5,1.2-12.6,1.2-7.1,0-11.9-1.3-14.5-3.8-2.6-2.5-3.8-7.4-3.8-14.4v-23.1h-11.9v-6.5h11.9v-10.3h8.7v10.3h21.2v6.5h-21.2v24.5c0,2.7.1,4.6.5,5.7.3,1,1.1,1.9,2.2,2.7,2,1.3,4.9,2,8.7,2s7.2-.4,10.8-1.2v6.6h0c0,0,0,0,0,0Z"/>
      <path class="st1" d="M1455.6,104.8c-73.2,14.1-116.9,63.6-116.9,132.3s43.7,118.2,116.9,132.3c11.2,2.2,22.8,3.3,34.4,3.3,47.7,0,85.7-18.5,97.3-24.9l-2.5-10.9c-3.6,1.2-32.8,10.9-65.5,10.9s-31.3-2.4-44.3-7.2c-49.9-18.4-68.5-73.2-68.5-103.6s18.6-85.2,68.5-103.6c12.9-4.7,27.7-7.1,44.3-7.1,31,0,58.3,8.5,64.6,10.5l32.7-81.8-2.8-1.4c-4.4,4-33.7,29.9-46.4,40.7-8.6,7.4-19.4,11.1-32,11.1s-8.2-.4-12.7-1.1c-11-1.8-21.9-2.7-32.5-2.7s-23.2,1.1-34.4,3.3"/>
      <path class="st1" d="M1200.6,292.3c0-11.4-2.1-21.2-6.3-29.3-4.2-8-9.8-15-16.5-20.8-6.8-5.8-14.6-10.9-23.2-15.1-8.7-4.2-17.4-8.2-26-11.8-7.8-3.3-15.4-6.6-22.5-9.7-7.3-3.2-13.9-7-19.5-11.1-5.7-4.2-10.4-8.9-13.8-14.3-3.5-5.4-5.3-11.9-5.3-19.4,0-13.7,4.9-23.2,16.1-30.7,13.6-9.3,31.7-14.1,53.7-14.1s6.6,0,10,.3c13.9.9,29.5,4.6,40.6,7.7l2.2-10.6c-33.1-7.1-54.4-10.1-71.1-10.1-32.4,0-59.2,7-79.4,20.8-20.2,13.7-30.3,32.5-30.3,55.7s2.1,21.1,6.2,29c4.1,8,9.6,14.9,16.2,20.6s14.3,10.7,22.8,14.8c8.5,4.1,17.2,8.1,25.8,11.8,7.8,3.2,15.5,6.5,22.8,9.7,7.4,3.3,14.1,7,19.9,11.2,5.9,4.2,10.6,9.1,14,14.5,3.5,5.5,5.3,12.1,5.3,19.9.3,17.1-7.8,29.7-23.9,37.4-8.2,4.3-18.1,6.9-29.3,7.6-6.3.8-13.2,1.1-20.6,1.1-26.3,0-51.1-4.6-58.1-6.1l-2.2,10.2c24.7,7,51.7,10.8,76.2,10.8,35,0,63.4-7.2,84.7-21.5,21.1-14.1,31.8-33.8,31.8-58.5"/>
      <path class="st1" d="M34.2,142.6c0,3,0,63.4,0,108.6v100.5c0,10.5,4.4,15,14.8,15h80.7l-.5-6.8-27.5-7c-3.9-1-6.2-3.6-6.3-7.2,0-2.3,0-4.7,0-7.3V122.6c0-10.5-4.4-15-14.7-15H0l.4,6.8,27.5,7c3.7,1,5.7,3.5,5.9,7.2.1,4.2.2,8.9.3,14"/>
      <path class="st1" d="M631.3,107.6v51.1l6.8-.5,7-27.5c1-3.7,3.5-5.7,7.2-5.9,4.2-.1,8.9-.2,14-.3h62.6v227.1c0,10.5,4.4,15,14.8,15h80.7l-.4-6.8-27.5-7c-3.9-1.1-6.2-3.6-6.3-7.2,0-2.3,0-4.8,0-7.4V124.4h96.7l3.5-16.9h-259.1q0,.1,0,.1Z"/>
      <path class="st1" d="M374.8,104.8c-73.1,14.1-116.9,63.6-116.9,132.3s43.7,118.2,116.9,132.3c11.2,2.2,22.8,3.3,34.4,3.3,45.8,0,82-16.7,96.2-24.2l-1.4-8.2c-2.2.8-6.4,2.1-12.2,3.6-3.5.8-12.5,2.5-20.1,2.5s-2.5,0-3.5-.1c-32.2-2.9-53.9-37.1-60.6-59.4-5.9-19.9-5.6-59.4,20.8-80.5,6.5-5.2,14.5-9.3,24-12.3l1.5-6.2c-6.6.7-13,1.9-18.9,3.7-6.3,1.9-12.3,4.4-18,7.5-36.8,20.1-51.4,56.4-39.3,96.9,6.3,20.8,18.1,37.3,34.1,47.5l-.8,2c-6-1.2-11.7-2.7-16.9-4.6-49.9-18.4-68.5-73.2-68.5-103.6s18.6-85.2,68.5-103.6c14.2-5.3,30.9-7.9,49.4-7.9,29.6,0,53.8,6.6,59.1,8.1l2.6-8.1c-14.2-7.7-50.4-24.2-96-24.2s-23.2,1.1-34.4,3.3"/>
      <polygon class="st1" points="60.7 58.9 40.4 0 7.6 21.6 56.3 61.1 60.7 58.9"/>
    </g>
    <path class="st1" d="M1706.1,472.3c4.2-3.4,13.2-10.2,17.1-13.1l14.8-11.4c7.7-5.3,15.2-12.1,22.3-17.4,7.1-5.2,13.4-11.6,18.8-17.4,5.4-5.8,9.7-12.8,12.9-19.3,3.2-6.4,4.8-13.6,4.8-21.3s-1-11.2-3.1-16.7c-2-5.4-5.3-10.3-9.7-14.6-4.5-4.3-10.4-7.8-17.5-10.5-7.2-2.7-16.2-4-26.8-4s-17.9,1-24.4,2.8-12,4.2-16.4,6.8c-4.3,2.6-7.8,5.5-10.3,8.4-2.1,2.5-3.9,4.7-5.4,6.7,3.7,3.5,6.8,6.5,9.3,9,2.5,2.5,5.3,5.6,8.3,9.2h.2c.4-4.2,1.2-8.3,2.4-12.2,1.3-4.4,3.3-8.4,5.7-11.7,2.5-3.4,5.7-6.1,9.7-8.2,4-2.1,8.7-3.1,13.9-3.1s8.8.9,12.2,2.7c3.3,1.8,6.1,4.3,8.2,7.4,2.1,3,3.6,6.5,4.6,10.3.9,3.7,1.4,7.7,1.4,11.7,0,9.3-1.9,18.2-5.6,26.4-3.6,8.1-8.3,16.3-13.9,24.2-5.2,7.4-10.9,14.5-16.9,21.1-6,6.5-12.6,13.2-19.6,19.7-7.1,6.6-14.8,13.3-23.2,20-8.2,6.6-17.2,13.7-27,21.4v6.4h116.3l13.7-57.2h-2.6s-5.7,6.7-10.3,12.1c-6.4,7.5-12.8,14.9-14.9,17.2-2.5.1-55.7.1-55.7.1h0c0-.1,4.9-4.4,6.5-5.8h0Z"/>
    <path class="st1" d="M1706.1,229.8c4.2-3.4,13.2-10.2,17.1-13.1l14.8-11.4c7.7-5.3,15.2-12.1,22.3-17.4,7.1-5.2,13.4-11.6,18.8-17.4,5.4-5.8,9.7-12.8,12.9-19.3,3.2-6.4,4.8-13.6,4.8-21.3s-1-11.2-3.1-16.7c-2-5.4-5.3-10.3-9.7-14.6-4.5-4.3-10.4-7.8-17.5-10.5-7.2-2.7-16.2-4-26.8-4s-17.9.9-24.4,2.8-12,4.2-16.4,6.8c-4.3,2.6-7.8,5.5-10.3,8.4-2.1,2.4-3.9,4.7-5.4,6.7,3.7,3.5,6.8,6.5,9.3,9,2.5,2.5,5.3,5.6,8.3,9.2h.2c.4-4.2,1.2-8.3,2.4-12.2,1.3-4.4,3.3-8.3,5.7-11.7,2.5-3.4,5.7-6.1,9.7-8.2,4-2.1,8.7-3.1,13.9-3.1s8.8.9,12.2,2.7c3.3,1.8,6.1,4.3,8.2,7.4,2.1,3,3.6,6.5,4.6,10.3.9,3.7,1.4,7.7,1.4,11.7,0,9.3-1.9,18.2-5.6,26.4-3.6,8.1-8.3,16.3-13.9,24.2-5.2,7.4-10.9,14.5-16.9,21.1-6,6.6-12.6,13.2-19.6,19.7-7.1,6.6-14.8,13.3-23.2,20-8.2,6.6-17.2,13.7-27,21.4v6.4h116.3l13.7-57.2h-2.6s-5.7,6.7-10.3,12.1c-6.4,7.4-12.8,14.9-14.9,17.2-2.5.1-55.7.1-55.7.1h0c0-.1,4.9-4.4,6.5-5.8h0Z"/>
    <path class="st2" d="M1818.2,436.4l-5.7,26.6s8.7-.6,14.8-.9c7.8-.4,19-.5,33.3-.5s10.9,0,14.3.1c3.4,0,7,.2,10.7.4h2.4c0,.1-.5,2.5-.5,2.5-1.7,7.8-3.4,15.3-5.3,22.6-1.6,6.4-3.3,12.6-5.1,18.6h60.6c0-1.5-.2-3-.3-4.5l-18.3-4.7c-2.6-.7-4.1-2.4-4.2-4.8,0-.7,0-6.1,0-6.1,0,0,2.7-14.7,4.1-22l.3-1.6h7.8c3,0,5.9,0,8.7.3,2.3.2,8.9.7,8.9.7l8.7-43h-3.7c-.5.9-5.8,11.5-6.2,12.4-.8,1.2-2.1,4.5-5.2,4.7-3.4.2-7.1.3-11.5.3h-2.5s4.7-22.9,6.6-31.6c1.8-8.8,3.7-17.4,5.5-25.9,1.8-8.5,3.9-17.3,6.1-26.3,2.1-8.4,4.4-17.7,7.1-28.1h-30.1l-101.3,110.9h0ZM1893.7,437.5h-59.2v-4.4l69.9-78.9,7.2-.7s-1.6,9.7-2.3,13.9c-.7,4.2-1.8,9.3-3.1,15.4-1.3,6.1-2.9,13.4-4.8,22-1.9,8.6-4.4,19-7.3,31.1l-.4,1.6h0Z"/>
    <path class="st1" d="M1885.2,263.4c-10.6,0-19.5-1.9-26.4-5.5-6.9-3.7-12.5-8.5-16.5-14.4-4.1-6-7-12.6-8.6-19.8-1.7-7.4-2.5-14.5-2.5-21.2s.6-16,1.8-24.6c1.2-8.6,3-17.1,5.4-25.5,2.4-8.4,5.5-16.6,9.1-24.4,3.6-7.7,7.8-14.7,12.6-20.7,5.1-6.7,11.7-12.2,19.6-16.7,7.8-4.4,17.6-6.6,29.2-6.6s19.8,2,26.4,6c6.7,4,11.9,9,15.4,14.8,3.6,5.9,6.1,12.2,7.4,18.8,1.3,6.8,2,12.8,2,17.9s-.5,13-1.5,21.1c-1,8.1-2.6,16.7-4.6,25.5-2.1,8.8-4.8,17.6-8.2,26.4-3.3,8.7-7.3,16.7-12,23.8-11.2,17-27.1,25.2-48.6,25.2h0ZM1911.2,87.6c-4.4,0-8.2,1.1-11.6,3.3-3.1,2.1-5.9,4.9-8.2,8.4-2.1,3.3-4.1,7.2-5.8,11.5-1.7,4.2-3.3,8.8-4.8,13.7-1.5,4.6-3.5,11.6-6,20.7-2.5,9.1-5,19.1-7.4,29.6-2.4,10.6-4.5,21-6.3,31.1-1.8,10.3-2.7,18.9-2.7,25.7s.2,6.3.7,9.5c.5,3.4,1.6,6.6,3.2,9.4,1.7,3,3.9,5.4,6.7,7.2,2.8,1.8,6.5,2.8,10.8,2.8,8.1,0,14.3-3.6,18.7-10.8,3.8-6.3,7.6-15.2,11.4-26.7.9-2.8,2.1-6.8,3.6-12,1.5-5.2,3.1-11,4.7-17.4,1.7-6.4,3.3-13.2,5-20.4,1.7-7.2,3.2-14.4,4.6-21.5,1.4-7.1,2.5-14,3.3-20.2.8-6.4,1.3-12,1.3-16.8s-.3-6.3-.9-9.4c-.6-3.2-1.8-6.2-3.4-8.8-1.7-2.7-3.9-4.8-6.7-6.5-2.8-1.7-6.3-2.6-10.5-2.6h0Z"/>
    <path class="st1" d="M1907.9,187.2c-2-5.8-8.5-24.6-10.5-30.4-6,4-12.1,7.9-18.1,11.9,3,2.4,22.1,18,25.1,20.4,0,0,3.5-1.9,3.4-1.9Z"/>
    <path class="st1" d="M1870.1,353.1c2.4-.2,4.6-.3,6.4-.3h16.8c10.8,0,20.7.3,29.3.8,7.9.5,15.9,1.2,23.7,2.2l13.6-56.1-1.9-.7c-2.2,2.6-14.9,17.5-23,26.8h-71.5l-1.5,1.7-19.9,87.8,5.1,3.1c2-1.7,4.3-3.4,6.9-4.9,3.3-2,7.8-3,13.4-3s8.5.9,11.9,2.7c3.4,1.8,6.3,4.1,8.7,7,2.3,2.9,4.1,6.3,5.2,10,1.1,3.7,1.7,7.7,1.7,11.9s-.6,9.1-1.7,15.3c-1.1,6.3-3.1,12.6-5.9,18.6-2.8,6.1-6.7,11.5-11.6,15.9-5.1,4.6-11.6,6.9-19.3,6.9s-11.3-1.4-15.1-4c-3.8-2.6-6.8-5.9-9-9.8-2.2-3.8-3.8-7.8-4.7-12-.7-3.3-1.4-6.2-1.9-8.8h-1.2l-14,24.1c2,1.5,4.4,3.2,7.2,5,3.3,2.2,7.3,4.3,11.9,6.2,4.5,1.9,9.9,3.5,15.9,4.6,6,1.1,12.9,1.7,20.6,1.7s20-1.5,28.1-4.5c8-3,14.8-7.1,20.2-12.3,5.4-5.2,9.5-11.4,12.3-18.3,2.8-7,4.2-14.4,4.2-22.1s-1.2-13.6-3.7-19.3c-2.4-5.7-5.8-10.6-10-14.7-4.2-4-9.4-7.2-15.5-9.5-6.1-2.3-12.9-3.4-20.2-3.4s-8.9.5-12.3,1.1c-2.9.4-11.5,2.4-11.6,2.4l-3.3.8,14.2-52.7h1.4c0-.1,0-.1,0-.1Z"/>
  </g>
</svg>